<svg width="52" height="54" viewBox="0 0 52 54" fill="none" xmlns="http://www.w3.org/2000/svg">
<path d="M21.2474 0.380208C22.187 0.269167 23.1178 0.654328 23.7332 1.40873L29.5563 8.54758C36.2436 10.2846 40.1182 15.5774 42.2612 22.1847C44.4694 28.9931 45.0156 37.6365 45.0156 46.5C45.0156 48.1568 43.7378 49.5 42.1615 49.5H15.5499C14.0346 49.5 12.7835 48.2554 12.7 46.6652C12.6256 45.246 12.9362 42.7837 13.8828 40.2685L13.9002 40.2225C11.2121 41.7391 8.22886 41.3758 6.01425 39.7185C3.32287 37.7044 1.82639 33.7615 3.53613 29.8678C4.76905 27.06 6.09787 25.5732 7.1031 24.4487C8.04208 23.3983 8.43339 22.9363 8.71022 21.7724C10.3886 14.7157 13.8416 10.6505 17.5499 8.79529C17.4962 7.99137 17.5399 7.21685 17.6337 6.51365C17.8672 4.76329 18.4485 3.14577 19.0411 1.96329C19.4817 1.08408 20.3079 0.491249 21.2474 0.380208Z" fill="#F4F7FA"/>
<path fill-rule="evenodd" clip-rule="evenodd" d="M28.0124 11.2639L21.5664 3.36145C20.6333 5.2234 19.7287 8.50959 21.0292 10.8819C20.398 10.941 19.7947 11.0532 19.3281 11.25C16.3511 12.5057 13.0846 15.75 11.4792 22.5C11.0143 24.4546 10.1776 25.3905 9.18313 26.503C8.24508 27.5523 7.16667 28.7587 6.1276 31.125C3.98698 36 9.76404 40.875 13.9766 36.4473C16.3449 33.9579 18.4151 32.9303 20.1531 32.0675C22.6547 30.8256 24.4682 29.9254 25.4927 25.5C25.98 27.5642 25.7851 32.4358 21.1061 35.4083C16.4272 38.3807 15.4524 44.6422 15.5499 46.5H42.1615C42.1615 28.8624 39.9398 13.6236 28.0124 11.2639Z" fill="#34364C"/>
<ellipse cx="20.0417" cy="20.25" rx="2.14062" ry="2.25" fill="#F4F7FA"/>
</svg>
